<svg width="40" height="40" viewBox="0 0 40 40" fill="none" xmlns="http://www.w3.org/2000/svg">
<g clip-path="url(#clip0_7_88)">
<path d="M20.1562 4.58593C23.6562 5.03124 26.9141 6.65624 29.4062 9.21874L30.1094 9.92968L28.1016 11.9375L26.1016 13.9453L26.1719 14.2969C26.3047 14.9375 26.2656 15.625 26.0859 16C25.7812 16.6172 24.9766 16.9766 24.3125 16.7969C23.6094 16.6094 23.25 16.0703 23.1328 15.0469C23.0156 14.0312 22.4922 13.1094 21.8047 12.7109L21.5625 12.5703L21.5781 14.5078L21.6016 16.4375L21.9141 16.625C22.1719 16.7734 22.3125 16.7969 22.7578 16.7812L23.2812 16.75L22.4219 17.6172C21.8906 18.1562 21.5625 18.5391 21.5625 18.6406C21.5625 18.7656 21.6562 18.8281 22.0156 18.9375C22.6328 19.1328 23.625 19.6562 24.1406 20.0625C25.0469 20.7812 25.5547 21.5156 25.9531 22.6641C26.1875 23.3594 26.2031 23.4609 26.2031 24.5703C26.2109 25.8906 26.1172 26.3672 25.6641 27.3203C24.9141 28.9219 23.6641 30.0469 22.0312 30.6172L21.6016 30.7656L21.5625 31.6172C21.5156 32.5703 21.4141 32.8281 20.9141 33.2344C20.6328 33.4609 20.5703 33.4766 20 33.4766C19.4375 33.4766 19.3672 33.4609 19.0938 33.2344C18.6172 32.8516 18.4844 32.5078 18.4375 31.5781L18.3984 30.7656L17.8359 30.5469C15.5078 29.6484 13.9688 27.6016 13.7734 25.1797C13.7266 24.5078 13.8516 23.9609 14.1094 23.75C14.2734 23.6094 14.2422 23.5312 13.9688 23.3594C13.6641 23.1719 13.0156 23.1484 12.6328 23.3125C12.3125 23.4453 11.9219 23.8906 11.7969 24.2656C11.6094 24.8359 11.8203 26.2344 12.2344 27.1719L12.4297 27.6094L10.7422 29.2969L9.05469 30.9844L9.57812 31.4766C12.8594 34.5547 17.9062 36.0703 22.4297 35.3516C26.7344 34.6562 30.5 32.2422 32.9453 28.5937C34.1328 26.8203 34.9688 24.6719 35.3672 22.3828C35.5469 21.2969 35.5469 18.7031 35.3672 17.6172C34.6094 13.1875 32.2656 9.53124 28.6406 7.09374C26.1016 5.39061 22.9688 4.42968 20.0391 4.46093L19.2578 4.46874L20.1562 4.58593Z" fill="#EC9615"/>
<path d="M17.2656 6.65623C17.0625 6.76561 16.8203 6.97655 16.6797 7.17186C16.461 7.49217 16.4453 7.56248 16.4141 8.39842L16.3906 9.28123L16.1641 9.32811C15.7188 9.41405 14.7188 9.93748 14.1485 10.375C13.1328 11.1484 12.2422 12.4765 11.9141 13.7109C11.7188 14.4453 11.6797 15.7031 11.8203 16.5234C12.0469 17.789 12.4531 18.5703 13.3516 19.4531C14.0547 20.1562 14.8281 20.625 15.9219 21.0156L16.4063 21.1953V22.3828C16.4063 23.5 16.4141 23.5937 16.6016 23.9219C16.7344 24.1562 16.8125 24.4765 16.8672 24.9375C16.9844 25.9687 17.5078 26.8906 18.1953 27.289L18.4375 27.4297V24.3125V21.1953L17.9531 21.0156C15.5156 20.1328 14.1563 18.5859 13.8203 16.3281C13.3828 13.2969 15.0391 10.4922 17.9219 9.41405L18.3985 9.23436L18.4453 8.42967C18.4922 7.55467 18.5235 7.42967 18.7969 7.05467L18.9844 6.81248L18.6485 6.64842C18.2031 6.42967 17.7031 6.43748 17.2656 6.65623Z" fill="#EC9615"/>
<path d="M18.0391 12.8281C17.6094 13.1562 17.2188 13.7109 17.0235 14.25C16.836 14.7891 16.8203 15.8125 17 16.3984C17.1406 16.875 17.6172 17.4375 18.1172 17.7188L18.4375 17.8984V15.2422C18.4375 13.7734 18.4219 12.5781 18.4063 12.5781C18.3828 12.5781 18.2188 12.6953 18.0391 12.8281Z" fill="#EC9615"/>
<path d="M21.5625 24.7656V27.4297L21.8047 27.289C22.1562 27.0859 22.625 26.5312 22.8672 26.0234C23.1406 25.4453 23.2109 24.3203 23.0156 23.6328C22.8594 23.125 22.3438 22.5078 21.8594 22.2578L21.5625 22.1094V24.7656Z" fill="#EC9615"/>
<path d="M17.461 0.125C14.3047 0.546875 11.461 1.60938 8.97661 3.27344C3.97661 6.63281 0.898486 11.5938 0.109424 17.5781C-0.0624512 18.9375 -0.00776368 21.8984 0.226611 23.2422C0.585986 25.3359 1.14067 27.0469 2.0938 28.9688L2.67974 30.1719L3.18755 29.6562L3.70317 29.1484L3.36724 28.4375C1.4063 24.2109 0.968799 19.4219 2.14849 14.9453C2.52349 13.5234 2.86724 12.6094 3.55474 11.2109C4.55474 9.16406 5.5313 7.77344 7.10942 6.14844C10.4375 2.70312 14.6329 0.640625 19.375 0.117188L20.2735 0.015625H19.2579C18.7032 0.015625 17.8907 0.0625 17.461 0.125Z" fill="#ECC115"/>
<path d="M17.9688 4.57813C14.586 5.03125 11.4532 6.57813 9.01572 9.01563C4.83603 13.2031 3.39853 19.2422 5.24228 24.9219C5.92978 27.0313 7.58603 29.6641 9.15634 31.1328C9.3829 31.3438 9.45322 31.3984 9.31259 31.25L9.06259 30.9766L10.7423 29.2969L12.4298 27.6094L12.2345 27.1719C11.8204 26.2344 11.6095 24.8359 11.797 24.2656C11.922 23.8906 12.3126 23.4453 12.6329 23.3125C13.0392 23.1406 13.6798 23.1719 13.9923 23.3828L14.2579 23.5625L14.5235 23.3828C14.9376 23.1016 15.5548 23.1094 16.0782 23.3984L16.4063 23.5859V22.3906V21.1953L15.922 21.0156C14.8282 20.625 14.0548 20.1563 13.3517 19.4531C12.4532 18.5703 12.047 17.7891 11.8204 16.5234C11.6798 15.7031 11.7188 14.4453 11.9142 13.7109C12.2423 12.4766 13.1329 11.1484 14.1485 10.375C14.7188 9.9375 15.7188 9.41406 16.1642 9.32813L16.3907 9.28125L16.4142 8.39844C16.4454 7.5625 16.461 7.49219 16.6798 7.17188C17.1251 6.53125 17.9532 6.3125 18.6407 6.64844L18.9767 6.80469L19.2892 6.64844C19.9298 6.32031 20.7892 6.5 21.1954 7.04688C21.4767 7.42969 21.5079 7.54688 21.5548 8.42969L21.6017 9.24219L21.9923 9.375C23.8282 10 25.3517 11.5469 25.9454 13.3906L26.1095 13.9219L28.0938 11.9453C29.6173 10.4219 30.0548 9.94531 30.0001 9.85156C29.8829 9.61719 28.3204 8.15625 27.672 7.66406C25.9532 6.35938 24.1563 5.49219 22.0782 4.96094C21.211 4.74219 19.2735 4.4375 18.9063 4.46094C18.8438 4.46875 18.422 4.51563 17.9688 4.57813Z" fill="#ECC115"/>
<path d="M21.5625 17.4453V18.4766L22.4219 17.6172C22.8984 17.1484 23.2812 16.7578 23.2812 16.7578C23.2812 16.75 23.0547 16.7656 22.7734 16.7812C22.3438 16.8125 22.2188 16.7891 21.9141 16.6172L21.5625 16.4141V17.4453Z" fill="#ECC115"/>
<path d="M5.65625 33.2031L5.25 33.5859L6.125 34.4297C6.60156 34.8984 7.125 35.375 7.28906 35.5L7.58594 35.7266L7.92969 35.3906L8.27344 35.0469L7.20312 33.9531C6.61719 33.3438 6.11719 32.8438 6.09375 32.8359C6.07031 32.8203 5.875 32.9922 5.65625 33.2031Z" fill="#ECC115"/>
<path d="M12.9376 38.4141C12.8282 38.5312 12.7657 38.6562 12.797 38.6875C12.8829 38.7734 14.4689 39.2812 15.1954 39.4609C16.461 39.7656 17.6876 39.9297 18.9845 39.9609L20.2735 39.9922L19.3751 39.8906C17.3282 39.6484 15.2501 39.1016 13.5704 38.3672C13.3595 38.2812 13.1798 38.2031 13.1642 38.2031C13.1485 38.2031 13.0392 38.2969 12.9376 38.4141Z" fill="#ECC115"/>
<path d="M20.0391 0.046875C17.2891 0.320312 15.1094 0.898438 12.9219 1.95312C10.6641 3.02344 8.88284 4.3125 7.10941 6.14062C4.71878 8.60938 2.98441 11.6953 2.14847 14.9531C1.79691 16.3594 1.64847 17.2422 1.54691 18.7344C1.31253 21.9609 1.94535 25.3672 3.34378 28.3828L3.69535 29.1484L4.8516 28L6.00003 26.8516L5.80472 26.4141C5.20316 25.1016 4.71097 23.2812 4.52347 21.6875C4.39847 20.5938 4.4766 18.3125 4.67972 17.2266C5.12503 14.8516 6.11722 12.5703 7.54691 10.6484C8.13284 9.86719 9.86722 8.13281 10.6485 7.54688C12.5703 6.11719 14.8438 5.125 17.2266 4.67969C18.3203 4.46875 20.6797 4.39062 21.7735 4.52344C23.3203 4.71094 25.0313 5.17969 26.336 5.76562L26.8516 6L28.4844 4.36719C29.375 3.47656 30.0938 2.71875 30.0703 2.70312C29.9844 2.61719 28.4063 1.78906 28.2422 1.75C28.2032 1.73438 27.7813 1.57031 27.3047 1.375C26.3282 0.96875 24.9766 0.554688 24.2188 0.421875C24.1094 0.40625 23.8672 0.359375 23.6719 0.3125C23.4766 0.273438 23.1485 0.21875 22.9297 0.1875C22.7188 0.15625 22.4532 0.125 22.3438 0.109375C22.0157 0.0546875 20.375 0.015625 20.0391 0.046875Z" fill="#ECEC40"/>
<path d="M31.9922 6.85156L30.4375 8.4375L31.1172 9.11719C31.4844 9.5 31.9609 10.0234 32.1719 10.2812L32.5547 10.7656L34.1094 9.21094C35.0312 8.28906 35.7031 7.67188 35.7656 7.69531C35.8984 7.74219 35.1484 6.89844 34.2578 5.98438L33.5547 5.27344L31.9922 6.85156Z" fill="#ECEC40"/>
<path d="M21.5078 8.63281C21.5078 8.97656 21.5234 9.10937 21.5391 8.92187C21.5547 8.74218 21.5547 8.46093 21.5391 8.29687C21.5234 8.14062 21.5078 8.28906 21.5078 8.63281Z" fill="#ECEC40"/>
<path d="M38.5938 12.6562C38.5938 12.7187 37.8125 13.5547 36.8594 14.5078L35.1328 16.2344L35.2578 16.8906C35.6094 18.6797 35.6328 21.1094 35.3203 22.7891C34.875 25.1484 33.9141 27.375 32.4922 29.2969C31.8672 30.1484 30.1484 31.8672 29.2969 32.4922C27.3594 33.9219 25.1797 34.8672 22.75 35.3281C21.9688 35.4766 21.5703 35.5078 20 35.5078C18.4062 35.5078 18.0391 35.4766 17.1953 35.3203L16.2266 35.1406L14.7031 36.6641L13.1797 38.1875L13.5547 38.3516C16.4297 39.625 20.0859 40.2266 22.6172 39.8437C24.7578 39.5234 25.4062 39.3516 27.1875 38.6641C27.7266 38.4531 28.2109 38.2812 28.2578 38.2812C28.3047 38.2812 28.3594 38.2578 28.375 38.2187C28.3906 38.1875 28.7891 37.9687 29.2578 37.7422C29.7344 37.5078 30.1328 37.2891 30.1562 37.2656C30.1797 37.2422 30.5312 37.0156 30.9375 36.7656C31.3438 36.5156 31.6875 36.2812 31.7031 36.2422C31.7188 36.2109 31.8594 36.1016 32.0156 36C32.1719 35.9062 32.4766 35.6875 32.6875 35.5078C33.2109 35.0859 35.0703 33.2344 35.3281 32.8906C35.4375 32.7422 35.6016 32.5391 35.6953 32.4453C35.7891 32.3516 35.8594 32.2422 35.8594 32.2109C35.8594 32.1797 35.9531 32.0391 36.0781 31.9141C36.2969 31.6641 36.7969 30.9609 36.7969 30.8906C36.7969 30.875 36.9531 30.6172 37.1406 30.3281C37.4766 29.8125 38.5938 27.5859 38.5938 27.4219C38.5938 27.3828 38.6562 27.1953 38.7422 27.0078C38.9688 26.4922 39.4609 24.8984 39.5781 24.2734C39.5938 24.1797 39.625 24.0156 39.6484 23.9062C39.6953 23.6641 39.8359 22.7734 39.9062 22.1875C40.0234 21.2734 39.9531 17.8672 39.8125 17.0312C39.7891 16.9219 39.7578 16.7109 39.7344 16.5625C39.6797 16.2187 39.625 15.9609 39.5781 15.7969C39.5547 15.7266 39.5234 15.5781 39.5 15.4687C39.3984 14.875 38.6016 12.3984 38.5938 12.6562Z" fill="#ECEC40"/>
<path d="M21.5156 17.4219C21.5156 18 21.5234 18.2422 21.5391 17.9453C21.5547 17.6562 21.5547 17.1875 21.5391 16.8906C21.5234 16.6016 21.5156 16.8437 21.5156 17.4219Z" fill="#ECEC40"/>
<path d="M6.87499 31.9766C6.03906 32.8047 5.51562 33.3281 5.71093 33.1406L6.07812 32.7969L7.17187 33.9141L8.27343 35.0391L9.53124 33.7891L10.7891 32.5312L10.4141 32.2656C10.2109 32.1172 9.68749 31.6562 9.24999 31.2344C8.81249 30.8125 8.44531 30.4688 8.42968 30.4688C8.41406 30.4766 7.71093 31.1562 6.87499 31.9766Z" fill="#ECEC40"/>
<path d="M28.4766 4.39062L26.8359 6.05469L28.4844 4.42188C29.6016 3.32031 30.1719 2.8125 30.2344 2.85156C30.3047 2.89062 30.3203 2.88281 30.2812 2.82812C30.25 2.77344 30.2031 2.73438 30.1719 2.73438C30.1406 2.73438 29.375 3.48438 28.4766 4.39062Z" fill="#ECEC6B"/>
<path d="M31.9141 6.89062L30.3516 8.47656L31.9375 6.91406C33.4062 5.46094 33.5547 5.3125 33.4922 5.3125C33.4844 5.3125 32.7734 6.02344 31.9141 6.89062Z" fill="#ECEC6B"/>
<path d="M36.7969 14.5078L35.0391 16.2891L36.8203 14.5312C38.4688 12.8984 38.6328 12.7344 38.5703 12.7344C38.5625 12.7344 37.7656 13.5312 36.7969 14.5078Z" fill="#ECEC6B"/>
<path d="M26.1953 24.6875C26.1953 24.8828 26.2109 24.9609 26.2266 24.8594C26.2422 24.7656 26.2422 24.6094 26.2266 24.5078C26.2109 24.4141 26.1953 24.4922 26.1953 24.6875Z" fill="#ECEC6B"/>
<path d="M4.33592 28.5156C2.97654 29.875 2.71873 30.1719 2.80467 30.25C2.89061 30.3359 2.89842 30.3281 2.85154 30.2422C2.81248 30.1719 3.28123 29.6484 4.42186 28.5078C5.32029 27.6094 6.03904 26.875 6.01561 26.875C5.99217 26.875 5.23436 27.6094 4.33592 28.5156Z" fill="#ECEC6B"/>
<path d="M7.22655 31.5625C6.58592 32.2031 6.07811 32.7344 6.09373 32.7344C6.11717 32.7344 6.66405 32.2031 7.30467 31.5625C7.9453 30.9141 8.45311 30.3906 8.43748 30.3906C8.41405 30.3906 7.86717 30.9141 7.22655 31.5625Z" fill="#ECEC6B"/>
<path d="M4.6875 32.9141C4.6875 32.9297 4.80469 33.0391 4.94531 33.1719L5.19531 33.3984L4.96875 33.1406C4.75 32.9062 4.6875 32.8516 4.6875 32.9141Z" fill="#ECEC6B"/>
<path d="M7.96871 35.3516C7.68746 35.6406 7.64059 35.7187 7.72652 35.7969C7.81246 35.8828 7.82027 35.875 7.7734 35.7969C7.73434 35.7266 7.8359 35.5703 8.05465 35.3437C8.24215 35.1562 8.37496 35 8.35152 35C8.32809 35 8.15621 35.1562 7.96871 35.3516Z" fill="#ECEC6B"/>
<path d="M14.6484 36.6562L13.0859 38.2422L14.6719 36.6797C15.5391 35.8203 16.25 35.1094 16.25 35.1016C16.25 35.0391 16.1016 35.1875 14.6484 36.6562Z" fill="#ECEC6B"/>
<path d="M28.5156 4.41406C27.6406 5.28906 26.9375 6.02344 26.9531 6.03906C26.9766 6.05469 27.2188 6.19531 27.5 6.34375C28.2578 6.76562 29.1016 7.33594 29.7891 7.89062L30.4063 8.38281L31.9688 6.82031L33.5234 5.26562L32.7969 4.65625C32.125 4.09375 30.2969 2.8125 30.1719 2.8125C30.1406 2.8125 29.3984 3.53125 28.5156 4.41406Z" fill="#ECEC96"/>
<path d="M19.5079 6.60156C19.1329 6.72656 18.8594 6.97656 18.6641 7.35938C18.5469 7.59375 18.5157 7.82031 18.5157 8.46094V9.26562L17.9922 9.4375C16.4297 9.9375 14.9454 11.3281 14.2813 12.8984C13.6329 14.4531 13.6719 16.6562 14.3829 18.0625C15.0469 19.3828 16.3204 20.4219 17.9532 20.9688L18.4766 21.1484L18.5 24.3203C18.5079 26.0703 18.4922 27.5 18.4688 27.5C18.4454 27.5 18.25 27.375 18.0469 27.2266C17.3516 26.7109 16.7969 25.6406 16.7969 24.7812C16.7891 23.2266 14.7969 22.625 14.0235 23.9375C13.5469 24.75 13.9297 26.7422 14.8047 28.0938C15.5079 29.1641 16.8204 30.1875 17.9922 30.5625L18.5157 30.7344V31.5391C18.5157 32.4453 18.6329 32.7891 19.0625 33.1484C19.2891 33.3438 19.7344 33.5156 20 33.5156C20.2657 33.5156 20.711 33.3438 20.9375 33.1484C21.3672 32.7891 21.4844 32.4453 21.4844 31.5391V30.7344L22.0157 30.5625C23.5782 30.0625 25.0547 28.6719 25.7188 27.1016C26.0782 26.2344 26.1954 25.5 26.1485 24.3359C26.0938 22.9297 25.8204 22.0703 25.086 21.0938C24.461 20.25 23.2891 19.4609 21.9766 18.9844L21.4844 18.8047V15.6562C21.4844 13.9219 21.5079 12.5 21.5313 12.5C21.5625 12.5 21.75 12.625 21.9532 12.7734C22.6485 13.2891 23.2032 14.3594 23.2032 15.2188C23.211 16.7734 25.2032 17.375 25.9766 16.0625C26.4532 15.25 26.0704 13.2578 25.1954 11.9062C24.4922 10.8359 23.1797 9.8125 22.0157 9.4375L21.4844 9.26562V8.46094C21.4844 7.8125 21.4532 7.59375 21.3282 7.35156C21.1407 6.97656 20.7813 6.67188 20.4063 6.5625C20.0313 6.46094 19.875 6.46875 19.5079 6.60156ZM18.5157 15.2344V17.9688L18.1954 17.8047C18.0157 17.7188 17.7266 17.5078 17.5391 17.3359C16.625 16.4922 16.5469 14.6562 17.375 13.4766C17.625 13.125 18.3125 12.5 18.461 12.5C18.4922 12.5 18.5157 13.7344 18.5157 15.2344ZM21.961 22.2734C22.75 22.7812 23.1016 23.3828 23.1797 24.375C23.2422 25.1719 23.0704 25.8516 22.6407 26.4844C22.3829 26.875 21.6954 27.5 21.5313 27.5C21.5079 27.5 21.4844 26.2656 21.4844 24.7656C21.4844 23.2578 21.5079 22.0312 21.5391 22.0312C21.5625 22.0312 21.7579 22.1406 21.961 22.2734Z" fill="#ECEC96"/>
<path d="M34.1094 9.21094L32.5625 10.7656L33.0391 11.4922C33.7188 12.5234 34.3984 13.9297 34.7891 15.1406L35.125 16.1719L36.8672 14.4219L38.6016 12.6797L38.2578 11.8984C37.7812 10.8203 37.2734 9.89062 36.5547 8.83594C35.9062 7.875 35.7422 7.65625 35.6953 7.65625C35.6797 7.65625 34.9609 8.35156 34.1094 9.21094Z" fill="#ECEC96"/>
<path d="M4.38281 28.5469L2.78906 30.1406L3.14844 30.7188C3.53906 31.3516 4.46094 32.5781 4.96875 33.1484L5.28125 33.5078L6.83594 31.9531L8.38281 30.3984L7.94531 29.8594C7.375 29.1484 6.74219 28.2188 6.35938 27.5156C6.19531 27.2109 6.03906 26.9531 6.01562 26.9531C5.99219 26.9531 5.25781 27.6719 4.38281 28.5469Z" fill="#ECEC96"/>
<path d="M9.22656 34.1094C8.40625 34.9531 7.73438 35.6719 7.73438 35.7031C7.73438 35.9375 10.3281 37.5469 11.7422 38.1875L12.6797 38.6094L14.4297 36.8594L16.1719 35.1172L15.2969 34.8359C13.8125 34.3516 12.1875 33.5547 11.1406 32.7969C10.9766 32.6797 10.8125 32.5781 10.7812 32.5781C10.7422 32.5781 10.0469 33.2656 9.22656 34.1094Z" fill="#ECEC96"/>
</g>
<defs>
<clipPath id="clip0_7_88">
<rect width="40" height="40" fill="white"/>
</clipPath>
</defs>
</svg>
